<svg width="157" height="15" viewBox="0 0 157 15" fill="none" xmlns="http://www.w3.org/2000/svg">
<g clip-path="url(#clip0_5_51384)">
<path d="M11.768 6.5713C11.8145 6.25239 11.7861 5.92688 11.6853 5.62112C11.5721 5.29489 11.3513 5.01816 11.0601 4.83757C10.6585 4.60414 10.1975 4.4969 9.73569 4.52948C9.02331 4.47885 8.31827 4.70204 7.7612 5.15454C7.27693 5.62368 6.96702 6.24745 6.88364 6.92087L6.70228 8.0125C6.62842 8.40071 6.62842 8.79962 6.70228 9.18782C6.76791 9.54861 6.97228 9.86826 7.2705 10.0765C7.70216 10.3437 8.20601 10.4663 8.71041 10.4268L17.7624 10.4179L16.487 14.6393V14.6482H7.98278C5.04444 14.6566 2.90199 14.0395 1.55543 12.7967C0.198154 11.5624 -0.270849 9.78499 0.148426 7.46446L0.206199 7.14748C0.608898 4.80572 1.69243 3.03076 3.4568 1.82261C5.21775 0.60581 7.57106 -0.00296044 10.5335 -0.00296044H10.5504C11.792 -0.032849 13.0304 0.136115 14.22 0.497682C15.0804 0.766147 15.8781 1.20828 16.5652 1.79743C17.1177 2.27299 17.5614 2.86459 17.8655 3.53116C18.1349 4.11696 18.3019 4.74567 18.3591 5.38931C18.4086 5.92549 18.3921 6.46581 18.3101 6.99788L11.5866 7.57925L11.768 6.5713Z" fill="white"/>
<path d="M33.5986 1.37898C32.8088 0.75392 31.5334 0.445836 29.7644 0.428802H20.0791L18.343 10.4128L17.6118 14.6378H27.6597C28.3891 14.6386 29.1177 14.5891 29.8404 14.4897C30.5409 14.4036 31.2254 14.2155 31.8727 13.9313C32.486 13.6668 33.0298 13.2611 33.4611 12.7464C33.7427 12.4032 33.9652 12.0143 34.1192 11.5962L34.128 11.5792C34.2263 11.3003 34.2997 11.013 34.3474 10.7208L34.3971 10.4542C34.4484 10.1995 34.4678 9.93922 34.4549 9.67957V9.66253C34.4488 9.30433 34.3644 8.95196 34.2079 8.6307C34.0514 8.30943 33.8265 8.02723 33.5496 7.80438C33.2164 7.53754 32.8365 7.33655 32.43 7.21191C32.0388 7.08596 31.6309 7.02128 31.2204 7.02009V6.98158C31.9482 6.88899 32.634 6.58496 33.1949 6.1062C33.8518 5.59891 34.3049 4.86773 34.4703 4.04809L34.4951 3.93996C34.686 2.85425 34.3898 1.9959 33.5986 1.37898ZM28.7771 10.018C28.7109 10.4208 28.5107 10.7884 28.2097 11.06C27.8222 11.346 27.3464 11.4819 26.8685 11.4429H24.3009L24.7865 8.64347H27.2795C27.6292 8.62546 27.9787 8.68512 28.3033 8.81826C28.4052 8.86721 28.4972 8.93502 28.5746 9.01822C28.6491 9.10076 28.7076 9.19671 28.7472 9.30112C28.8108 9.53467 28.8211 9.77985 28.7771 10.018ZM29.3622 5.20415C29.3385 5.38365 29.2798 5.55659 29.1896 5.71294C29.1014 5.87276 28.9808 6.01183 28.8357 6.12101C28.4694 6.34563 28.0459 6.45589 27.618 6.43799H25.1733L25.6011 3.94588H28.0532C28.5965 3.94588 28.9666 4.05401 29.164 4.2873C29.2615 4.41567 29.3315 4.56322 29.3695 4.72054C29.4038 4.88021 29.401 5.04575 29.3615 5.20415H29.3622Z" fill="white"/>
<path d="M40.6307 10.883H47.959L47.3103 14.6045H33.5956L36.0703 0.399918H49.804L49.162 4.08956H41.8L41.46 6.04695H48.2113L47.7279 8.82196H40.9766L40.6307 10.883Z" fill="white"/>
<path d="M60.1219 6.57129C60.1728 6.25254 60.1444 5.92595 60.0392 5.62112C59.9292 5.2955 59.7111 5.0186 59.422 4.83757C59.0174 4.60397 58.5535 4.49677 58.0889 4.52948C57.3767 4.48024 56.6721 4.70327 56.1144 5.15454C55.6301 5.62368 55.3202 6.24745 55.2368 6.92086L55.0555 8.0125C54.9816 8.4007 54.9816 8.79962 55.0555 9.18782C55.1274 9.54817 55.3338 9.86652 55.6317 10.0765C56.0627 10.3455 56.5671 10.4682 57.0717 10.4268L66.1156 10.4098H66.1236L64.8402 14.643V14.6519H56.3367C53.3906 14.6519 51.2481 14.0348 49.9094 12.8004C48.5682 11.5585 48.0994 9.78325 48.5024 7.45853L48.5601 7.14156C48.9633 4.8077 50.0468 3.03545 51.8107 1.82483C53.5746 0.614202 55.9335 0.00567881 58.8875 -0.000739676H58.9043C60.1459 -0.0311764 61.3845 0.1378 62.5739 0.499903C63.4358 0.764747 64.2343 1.20727 64.9192 1.79965C65.4716 2.27521 65.9153 2.8668 66.2194 3.53338C66.4888 4.11918 66.6559 4.74789 66.713 5.39153C66.7696 5.9272 66.7558 6.4681 66.6721 7.0001L59.9493 7.5748L60.1219 6.57129Z" fill="white"/>
<path d="M88.2489 0.420654L88.1991 0.696155V0.720595L84.0191 14.6297H80.4065L81.7725 6.68756H81.7148L77.4279 14.6216H74.309L72.7455 6.68756H72.7125L71.3297 14.6297H65.9561L66.6889 10.4128L68.433 0.420654H75.2882L77.0491 8.07914H77.0901L81.4266 0.420654H88.2489Z" fill="white"/>
<path d="M105.25 0.437698L104.345 5.6463L103.76 8.97972V9.0049L102.773 14.6467H97.3008L98.5023 7.72959L92.0421 14.6467H85.8049L88.2818 0.437698H93.754L92.4699 7.72959L99.0947 0.437698H105.25Z" fill="white"/>
<path d="M115.536 6.57129C115.579 6.25227 115.551 5.92769 115.454 5.62111C115.338 5.29642 115.118 5.02052 114.829 4.83756C114.427 4.60432 113.965 4.4971 113.503 4.52947C112.788 4.47993 112.081 4.70288 111.52 5.15453C111.042 5.62843 110.734 6.24981 110.643 6.92085L110.462 8.01249C110.388 8.40069 110.388 8.79961 110.462 9.18781C110.534 9.54807 110.74 9.86643 111.037 10.0765C111.469 10.3454 111.973 10.4681 112.478 10.4268L121.513 10.4098H121.521L120.255 14.6349H120.246V14.6519H111.734C108.788 14.6519 106.646 14.0347 105.308 12.8004C104.279 11.85 103.763 10.5831 103.76 8.9997V8.98118C103.763 8.47212 103.812 7.96439 103.907 7.46445L103.956 7.14747C104.04 6.63683 104.169 6.1349 104.342 5.64777C104.334 5.63888 104.342 5.63074 104.342 5.62259C104.858 4.07318 105.865 2.73993 107.206 1.83074C108.967 0.613696 111.326 0.00518143 114.283 0.00518143H114.308C115.55 -0.0292471 116.789 0.139813 117.978 0.505824C118.842 0.772535 119.642 1.21479 120.331 1.80556C120.881 2.28168 121.322 2.87328 121.624 3.5393C121.895 4.1248 122.065 4.75343 122.125 5.39745C122.175 5.93362 122.158 6.47395 122.076 7.00601L115.353 7.58072L115.536 6.57129Z" fill="white"/>
<path d="M139.384 11.3792C139.359 11.1963 139.343 11.0215 139.318 10.846C139.219 10.1876 139.113 9.52108 138.989 8.8464C138.916 8.4213 138.824 7.99619 138.734 7.56295C138.438 6.27925 138.125 5.10417 137.796 4.03772C137.466 2.97052 137.055 1.77076 136.57 0.453979H128.842C127.896 1.76286 127.073 2.95472 126.374 4.02957C125.674 5.09603 124.958 6.2795 124.21 7.56295C123.765 8.37093 123.271 9.31297 122.737 10.3965C122.128 11.6295 121.453 13.0382 120.729 14.6297H127.378C127.764 13.5188 128.135 12.5294 128.497 11.6547H133.006C133.056 12.5294 133.072 13.521 133.072 14.6297H139.738C139.622 13.4129 139.499 12.3294 139.384 11.3792ZM129.6 8.32131C129.935 7.56622 130.309 6.8291 130.719 6.11286C131.084 5.47892 131.501 4.82941 131.969 4.14584H132.159C132.389 4.8457 132.578 5.50409 132.727 6.12916C132.891 6.85765 133.015 7.59498 133.097 8.33761L129.6 8.32131Z" fill="white"/>
<path d="M156.529 3.44598C156.011 2.32035 155.107 1.42313 153.986 0.920555C152.776 0.328079 151.207 0.0370216 149.287 0.0370216C147.584 -0.0045956 145.889 0.295689 144.3 0.920555C142.962 1.43646 141.783 2.302 140.883 3.42917C139.982 4.55634 139.392 5.90494 139.173 7.33781L139.116 7.65403C139.043 8.04748 139.002 8.44623 138.993 8.8464C138.952 9.78769 139.083 10.6297 139.388 11.3792C139.406 11.439 139.428 11.4976 139.453 11.5547C139.972 12.6867 140.878 13.5898 142.004 14.0965C143.223 14.6963 144.789 14.9963 146.703 14.9963H146.794C148.478 15.037 150.152 14.7308 151.715 14.0965C153.048 13.5697 154.222 12.6971 155.117 11.5662C156.012 10.4353 156.599 9.08592 156.816 7.65329L156.866 7.33707C157.126 5.83736 157.01 4.53762 156.529 3.44598ZM150.521 6.82086L150.274 8.22133C150.208 8.75412 149.994 9.25698 149.657 9.67141C149.371 9.99812 149.009 10.2473 148.604 10.3965C148.247 10.5354 147.868 10.6086 147.485 10.6127C147.124 10.6077 146.766 10.5343 146.431 10.3965C146.088 10.2566 145.804 10.0003 145.627 9.67141C145.422 9.21684 145.379 8.7047 145.503 8.22133L145.742 6.83791C145.809 6.29877 146.026 5.78999 146.367 5.37078C146.653 5.0416 147.015 4.78962 147.421 4.63759C147.779 4.50277 148.158 4.43234 148.54 4.42949C148.904 4.42776 149.264 4.49847 149.602 4.63759C149.945 4.7781 150.228 5.03806 150.399 5.37078C150.602 5.82596 150.644 6.33809 150.518 6.82086H150.521Z" fill="white"/>
<path d="M17.7588 10.4216L16.4834 14.6467H16.4753L17.7588 10.4216Z" fill="#111927"/>
<path d="M18.3511 10.4128L17.6191 14.6379H17.611L18.343 10.4128H18.3511Z" fill="#111927"/>
<path d="M66.1206 10.4128L64.8372 14.6467L66.1126 10.4128H66.1206Z" fill="#111927"/>
<path d="M66.713 10.4128L65.9729 14.6297H65.9561L66.6889 10.4128H66.713Z" fill="#111927"/>
<path d="M121.519 10.4128L120.252 14.6379H120.243L121.51 10.4128H121.519Z" fill="#111927"/>
</g>
<defs>
<clipPath id="clip0_5_51384">
<rect width="157" height="15" fill="white"/>
</clipPath>
</defs>
</svg>
