<svg width="219" height="20" viewBox="0 0 219 20" fill="none" xmlns="http://www.w3.org/2000/svg">
<g clip-path="url(#clip0_5_73158)">
<path d="M16.4152 8.76163C16.48 8.33642 16.4405 7.90241 16.2999 7.49472C16.1419 7.05975 15.8339 6.69078 15.4277 6.45C14.8676 6.13875 14.2246 5.99576 13.5804 6.03921C12.5867 5.9717 11.6032 6.26928 10.8261 6.87262C10.1506 7.49814 9.71833 8.32984 9.60202 9.22772L9.34904 10.6832C9.24602 11.2008 9.24602 11.7327 9.34904 12.2503C9.44059 12.7314 9.72567 13.1576 10.1416 13.4353C10.7438 13.7915 11.4466 13.9549 12.1502 13.9023L24.7768 13.8905L22.9978 19.519V19.5309H11.1352C7.03651 19.5421 4.048 18.7192 2.16968 17.0622C0.276405 15.4165 -0.377808 13.0465 0.20704 9.95251L0.287628 9.52987C0.849355 6.40753 2.36078 4.04092 4.8219 2.43004C7.27827 0.807645 10.5609 -0.00404898 14.6933 -0.00404898H14.7167C16.4487 -0.0439004 18.1762 0.181385 19.8355 0.663474C21.0357 1.02143 22.1485 1.61094 23.1069 2.39647C23.8775 3.03056 24.4964 3.81935 24.9206 4.70812C25.2965 5.48918 25.5295 6.32746 25.6092 7.18565C25.6782 7.90055 25.6553 8.62098 25.5409 9.33041L16.1622 10.1056L16.4152 8.76163Z" fill="#384250"/>
<path d="M46.8667 1.83868C45.765 1.00527 43.986 0.594489 41.5184 0.571777H28.0084L25.5867 13.8837L24.5667 19.5172H38.5826C39.6 19.5181 40.6163 19.4521 41.6245 19.3197C42.6015 19.2049 43.5563 18.9541 44.4593 18.5751C45.3148 18.2225 46.0734 17.6815 46.6749 16.9952C47.0678 16.5376 47.3782 16.0192 47.593 15.4617L47.6053 15.439C47.7424 15.0671 47.8448 14.6841 47.9113 14.2945L47.9807 13.939C48.0521 13.5993 48.0792 13.2523 48.0612 12.9061V12.8834C48.0527 12.4058 47.935 11.936 47.7167 11.5076C47.4983 11.0793 47.1847 10.703 46.7984 10.4059C46.3336 10.0501 45.8038 9.78211 45.2366 9.61591C44.691 9.44798 44.122 9.36174 43.5494 9.36016V9.30882C44.5647 9.18536 45.5212 8.77999 46.3036 8.14164C47.2199 7.46526 47.8519 6.49035 48.0827 5.39749L48.1174 5.25332C48.3836 3.80571 47.9705 2.66124 46.8667 1.83868ZM40.1413 13.3574C40.0489 13.8944 39.7696 14.3846 39.3497 14.7467C38.8093 15.1281 38.1455 15.3092 37.4789 15.2573H33.8974L34.5747 11.5247H38.0522C38.5401 11.5006 39.0275 11.5802 39.4803 11.7577C39.6225 11.823 39.7509 11.9134 39.8587 12.0243C39.9627 12.1344 40.0443 12.2623 40.0995 12.4015C40.1883 12.7129 40.2026 13.0398 40.1413 13.3574ZM40.9574 6.93891C40.9243 7.17824 40.8425 7.40882 40.7166 7.6173C40.5936 7.83038 40.4253 8.01582 40.2229 8.16139C39.712 8.46088 39.1212 8.60789 38.5245 8.58402H35.1143L35.7111 5.26122H39.1314C39.8893 5.26122 40.4055 5.40539 40.6809 5.71644C40.8169 5.8876 40.9146 6.08434 40.9676 6.2941C41.0154 6.50699 41.0115 6.72771 40.9564 6.93891H40.9574Z" fill="#384250"/>
<path d="M56.6759 14.5107H66.8982L65.9933 19.4727H46.8627L50.3146 0.533203H69.4718L68.5762 5.45273H58.307L57.8327 8.06258H67.2501L66.5758 11.7626H57.1584L56.6759 14.5107Z" fill="#384250"/>
<path d="M83.8643 8.76175C83.9353 8.33674 83.8957 7.90129 83.749 7.49484C83.5955 7.06069 83.2912 6.69149 82.8881 6.45011C82.3236 6.13864 81.6766 5.99572 81.0284 6.03933C80.035 5.97367 79.0522 6.27105 78.2742 6.87274C77.5987 7.49826 77.1664 8.32996 77.0501 9.22784L76.7971 10.6834C76.6941 11.201 76.6941 11.7328 76.7971 12.2504C76.8974 12.7309 77.1854 13.1554 77.601 13.4354C78.2021 13.794 78.9057 13.9576 79.6095 13.9025L92.2249 13.8798H92.2361L90.4459 19.5241V19.5359H78.5843C74.4747 19.5359 71.4862 18.713 69.6188 17.0673C67.748 15.4113 67.0941 13.0444 67.6562 9.94472L67.7367 9.5221C68.2991 6.41028 69.8106 4.04729 72.271 2.43312C74.7315 0.818957 78.0219 0.00759209 82.1424 -0.000965889H82.1658C83.8978 -0.0415482 85.6255 0.183753 87.2846 0.666558C88.4869 1.01968 89.6007 1.60971 90.556 2.39955C91.3267 3.03364 91.9455 3.82242 92.3697 4.71119C92.7456 5.49226 92.9786 6.33055 93.0583 7.18873C93.1372 7.90296 93.118 8.62415 93.0012 9.33349L83.6235 10.0998L83.8643 8.76175Z" fill="#384250"/>
<path d="M123.099 0.560791L123.029 0.928126V0.960712L117.199 19.5062H112.159L114.065 8.91667H113.984L108.005 19.4953H103.654L101.473 8.91667H101.427L99.498 19.5062H92.0024L93.0246 13.8836L95.4575 0.560791H105.02L107.476 10.7721H107.533L113.582 0.560791H123.099Z" fill="#384250"/>
<path d="M146.814 0.583496L145.551 7.5283L144.736 11.9729V12.0064L143.359 19.5289H135.725L137.401 10.306L128.39 19.5289H119.69L123.145 0.583496H130.778L128.987 10.306L138.228 0.583496H146.814Z" fill="#384250"/>
<path d="M161.162 8.76161C161.222 8.33626 161.182 7.90348 161.047 7.49471C160.885 7.06179 160.578 6.69393 160.175 6.44998C159.614 6.139 158.971 5.99603 158.326 6.03919C157.329 5.97314 156.342 6.2704 155.56 6.8726C154.893 7.50448 154.463 8.33297 154.336 9.2277L154.084 10.6832C153.981 11.2008 153.981 11.7327 154.084 12.2503C154.184 12.7307 154.471 13.1551 154.887 13.4353C155.488 13.7937 156.192 13.9573 156.896 13.9023L169.499 13.8796H169.511L167.744 19.5131H167.732V19.5358H155.859C151.749 19.5358 148.761 18.7129 146.894 17.0671C145.459 15.7999 144.739 14.1107 144.736 11.9995V11.9748C144.739 11.2961 144.808 10.6191 144.94 9.95249L145.008 9.52986C145.126 8.849 145.306 8.17977 145.548 7.53025C145.537 7.5184 145.548 7.50755 145.548 7.49668C146.266 5.4308 147.671 3.65314 149.542 2.44088C151.999 0.81816 155.289 0.00680685 159.414 0.00680685H159.449C161.181 -0.0390978 162.91 0.186316 164.568 0.67433C165.773 1.02994 166.89 1.61962 167.851 2.40731C168.618 3.04213 169.233 3.83094 169.653 4.71896C170.032 5.49963 170.269 6.3378 170.353 7.19649C170.422 7.91139 170.399 8.63183 170.285 9.34125L160.906 10.1075L161.162 8.76161Z" fill="#384250"/>
<path d="M194.427 15.1722C194.392 14.9283 194.37 14.6953 194.335 14.4613C194.198 13.5834 194.049 12.6947 193.876 11.7951C193.774 11.2283 193.647 10.6615 193.52 10.0838C193.108 8.37225 192.671 6.80548 192.212 5.38354C191.753 3.96061 191.179 2.36093 190.502 0.605225H179.723C178.403 2.35039 177.255 3.93955 176.28 5.37268C175.304 6.79462 174.305 8.37258 173.26 10.0838C172.64 11.1612 171.952 12.4172 171.206 13.8619C170.356 15.506 169.415 17.3841 168.405 19.5062H177.679C178.219 18.025 178.736 16.7057 179.241 15.5396H185.531C185.6 16.7057 185.623 18.028 185.623 19.5062H194.921C194.76 17.8838 194.588 16.4391 194.427 15.1722ZM180.779 11.095C181.247 10.0882 181.768 9.10538 182.34 8.1504C182.85 7.30514 183.431 6.43913 184.085 5.52771H184.349C184.67 6.46086 184.934 7.33871 185.141 8.17213C185.371 9.14345 185.543 10.1266 185.657 11.1167L180.779 11.095Z" fill="#384250"/>
<path d="M218.343 4.59454C217.62 3.09369 216.36 1.8974 214.795 1.2273C213.108 0.437337 210.919 0.0492604 208.241 0.0492604C205.865 -0.0062292 203.501 0.39415 201.285 1.2273C199.419 1.91518 197.774 3.06924 196.518 4.57213C195.261 6.07502 194.439 7.87315 194.133 9.78364L194.054 10.2053C193.952 10.7299 193.895 11.2615 193.881 11.7951C193.824 13.0502 194.008 14.1729 194.432 15.1722C194.458 15.2519 194.489 15.3301 194.524 15.4062C195.247 16.9155 196.511 18.1196 198.082 18.7952C199.782 19.595 201.967 19.9949 204.637 19.9949H204.764C207.112 20.0492 209.447 19.641 211.628 18.7952C213.488 18.0928 215.124 16.9294 216.373 15.4215C217.622 13.9137 218.44 12.1145 218.744 10.2043L218.813 9.78265C219.175 7.78305 219.014 6.05005 218.343 4.59454ZM209.963 9.09438L209.618 10.9617C209.526 11.6721 209.228 12.3425 208.757 12.8951C208.358 13.3307 207.854 13.663 207.288 13.8618C206.79 14.047 206.261 14.1447 205.728 14.1502C205.223 14.1434 204.725 14.0456 204.258 13.8618C203.779 13.6753 203.382 13.3336 203.136 12.8951C202.85 12.289 202.789 11.6062 202.963 10.9617L203.296 9.11711C203.389 8.39826 203.692 7.71989 204.168 7.16094C204.566 6.72203 205.072 6.38606 205.638 6.18336C206.137 6.00359 206.666 5.90969 207.199 5.90589C207.706 5.90358 208.21 5.99786 208.68 6.18336C209.159 6.3707 209.554 6.71731 209.793 7.16094C210.076 7.76785 210.134 8.45068 209.958 9.09438H209.963Z" fill="#384250"/>
<path d="M24.7717 13.8955L22.9927 19.529H22.9814L24.7717 13.8955Z" fill="#111927"/>
<path d="M25.598 13.8838L24.5769 19.5172H24.5657L25.5868 13.8838H25.598Z" fill="#111927"/>
<path d="M92.232 13.8838L90.4418 19.5291L92.2208 13.8838H92.232Z" fill="#111927"/>
<path d="M93.0582 13.8838L92.0259 19.5064H92.0024L93.0246 13.8838H93.0582Z" fill="#111927"/>
<path d="M169.508 13.8838L167.74 19.5172H167.728L169.495 13.8838H169.508Z" fill="#111927"/>
</g>
<defs>
<clipPath id="clip0_5_73158">
<rect width="219" height="20" fill="white"/>
</clipPath>
</defs>
</svg>
